# xmcd
#
# Track frame offsets: 
#        150
#        19344
#        36130
#        56110
#        74582
#        91235
#        111192
#        126587
#        140625
#        157132
#        176092
#        196797
#        216652
#        238745
#        258285
#        274557
#        290000
#
# Disc length: 4037 seconds
#
# Revision: 0
# Processed by: cddbd v1.4PL0 Copyright (c) Steve Scherf et al.
# Submitted via: ExactAudioCopy v0.90a11
#
DISCID=150fc311
DTITLE=이광조 - The Best 잃어버린 시간속으로...
DYEAR=1900
DGENRE=
TTITLE0=상처
TTITLE1=그 누구인가
TTITLE2=세월가면
TTITLE3=가까이하기엔 너무 먼 당신
TTITLE4=사랑의 밀어를 따라
TTITLE5=연인이여
TTITLE6=사랑을 잃어버린 나
TTITLE7=우리네 인생
TTITLE8=즐거운 인생
TTITLE9=이별
TTITLE10=외면
TTITLE11=널 내가 잊는 날까지
TTITLE12=시와같은 하루를
TTITLE13=사랑의 하루를 열어
TTITLE14=빈가슴 하나로
TTITLE15=나들이
TTITLE16=오늘같은 밤
EXTD=
EXTT0=
EXTT1=
EXTT2=
EXTT3=
EXTT4=
EXTT5=
EXTT6=
EXTT7=
EXTT8=
EXTT9=
EXTT10=
EXTT11=
EXTT12=
EXTT13=
EXTT14=
EXTT15=
EXTT16=
PLAYORDER=
